<mxfile host="app.diagrams.net" modified="2021-07-04T13:58:52.324Z" agent="5.0 (Macintosh; Intel Mac OS X 10_15_7) AppleWebKit/537.36 (KHTML, like Gecko) Chrome/91.0.4472.114 Safari/537.36" etag="H-gdEjcdET70KQf31-bk" version="14.4.9" type="github">
  <diagram name="Page-1" id="e7e014a7-5840-1c2e-5031-d8a46d1fe8dd">
    <mxGraphModel dx="1453" dy="711" grid="1" gridSize="10" guides="1" tooltips="1" connect="1" arrows="1" fold="1" page="1" pageScale="1" pageWidth="1169" pageHeight="826" background="none" math="0" shadow="0">
      <root>
        <mxCell id="0" />
        <mxCell id="1" parent="0" />
        <mxCell id="2" value="Web Server" style="swimlane;whiteSpace=wrap" parent="1" vertex="1">
          <mxGeometry x="20" y="130" width="500" height="662" as="geometry" />
        </mxCell>
        <mxCell id="5" value="" style="ellipse;shape=startState;fillColor=#000000;strokeColor=#ff0000;" parent="2" vertex="1">
          <mxGeometry x="203" y="40" width="30" height="30" as="geometry" />
        </mxCell>
        <mxCell id="6" value="" style="edgeStyle=elbowEdgeStyle;elbow=horizontal;verticalAlign=bottom;endArrow=open;endSize=8;endFill=1;rounded=0" parent="2" source="5" target="7" edge="1">
          <mxGeometry x="120.25" y="40" as="geometry">
            <mxPoint x="135.25" y="110" as="targetPoint" />
          </mxGeometry>
        </mxCell>
        <mxCell id="7" value="Web UI" style="" parent="2" vertex="1">
          <mxGeometry x="163" y="110" width="110" height="50" as="geometry" />
        </mxCell>
        <mxCell id="8" value="Inner Api" style="" parent="2" vertex="1">
          <mxGeometry x="163" y="190" width="110" height="50" as="geometry" />
        </mxCell>
        <mxCell id="9" value="" style="endArrow=open;endFill=1;rounded=0" parent="2" source="7" target="8" edge="1">
          <mxGeometry relative="1" as="geometry" />
        </mxCell>
        <mxCell id="AgzGkkPgZD7XDsQHhAtZ-95" style="edgeStyle=orthogonalEdgeStyle;rounded=0;orthogonalLoop=1;jettySize=auto;html=1;exitX=1;exitY=0.5;exitDx=0;exitDy=0;strokeColor=#000000;" edge="1" parent="2" source="10" target="AgzGkkPgZD7XDsQHhAtZ-93">
          <mxGeometry relative="1" as="geometry" />
        </mxCell>
        <mxCell id="10" value="Server" style="" parent="2" vertex="1">
          <mxGeometry x="162.75" y="290" width="110" height="50" as="geometry" />
        </mxCell>
        <mxCell id="AgzGkkPgZD7XDsQHhAtZ-53" value="Database" style="" vertex="1" parent="2">
          <mxGeometry x="162.75" y="542" width="110" height="50" as="geometry" />
        </mxCell>
        <mxCell id="16" value="TestCase" style="" parent="2" vertex="1">
          <mxGeometry x="30" y="410" width="80" height="50" as="geometry" />
        </mxCell>
        <mxCell id="AgzGkkPgZD7XDsQHhAtZ-73" value="TestPlan" style="" vertex="1" parent="2">
          <mxGeometry x="230" y="410" width="80" height="50" as="geometry" />
        </mxCell>
        <mxCell id="AgzGkkPgZD7XDsQHhAtZ-74" value="TestSuit" style="" vertex="1" parent="2">
          <mxGeometry x="130" y="410" width="80" height="50" as="geometry" />
        </mxCell>
        <mxCell id="AgzGkkPgZD7XDsQHhAtZ-81" value="Function" style="swimlane;fontStyle=0;childLayout=stackLayout;horizontal=1;startSize=26;fillColor=none;horizontalStack=0;resizeParent=1;resizeParentMax=0;resizeLast=0;collapsible=1;marginBottom=0;" vertex="1" parent="2">
          <mxGeometry x="30.25" y="38" width="120" height="104" as="geometry" />
        </mxCell>
        <mxCell id="AgzGkkPgZD7XDsQHhAtZ-82" value="Manage Project" style="text;strokeColor=none;fillColor=none;align=left;verticalAlign=top;spacingLeft=4;spacingRight=4;overflow=hidden;rotatable=0;points=[[0,0.5],[1,0.5]];portConstraint=eastwest;" vertex="1" parent="AgzGkkPgZD7XDsQHhAtZ-81">
          <mxGeometry y="26" width="120" height="26" as="geometry" />
        </mxCell>
        <mxCell id="AgzGkkPgZD7XDsQHhAtZ-83" value="Manage  TestData" style="text;strokeColor=none;fillColor=none;align=left;verticalAlign=top;spacingLeft=4;spacingRight=4;overflow=hidden;rotatable=0;points=[[0,0.5],[1,0.5]];portConstraint=eastwest;" vertex="1" parent="AgzGkkPgZD7XDsQHhAtZ-81">
          <mxGeometry y="52" width="120" height="26" as="geometry" />
        </mxCell>
        <mxCell id="AgzGkkPgZD7XDsQHhAtZ-84" value="Control Client" style="text;strokeColor=none;fillColor=none;align=left;verticalAlign=top;spacingLeft=4;spacingRight=4;overflow=hidden;rotatable=0;points=[[0,0.5],[1,0.5]];portConstraint=eastwest;" vertex="1" parent="AgzGkkPgZD7XDsQHhAtZ-81">
          <mxGeometry y="78" width="120" height="26" as="geometry" />
        </mxCell>
        <mxCell id="AgzGkkPgZD7XDsQHhAtZ-85" value="" style="endArrow=open;endFill=1;rounded=0;entryX=0.5;entryY=0;entryDx=0;entryDy=0;exitX=0.5;exitY=1;exitDx=0;exitDy=0;" edge="1" parent="2" source="8" target="10">
          <mxGeometry relative="1" as="geometry">
            <mxPoint x="228.25" y="250" as="sourcePoint" />
            <mxPoint x="238" y="210" as="targetPoint" />
          </mxGeometry>
        </mxCell>
        <mxCell id="AgzGkkPgZD7XDsQHhAtZ-93" value=" Client Controll" style="" vertex="1" parent="2">
          <mxGeometry x="310" y="290" width="110" height="50" as="geometry" />
        </mxCell>
        <mxCell id="AgzGkkPgZD7XDsQHhAtZ-123" value="" style="endArrow=classic;startArrow=classic;html=1;entryX=0.5;entryY=1;entryDx=0;entryDy=0;" edge="1" parent="2" target="10">
          <mxGeometry width="50" height="50" relative="1" as="geometry">
            <mxPoint x="218" y="390" as="sourcePoint" />
            <mxPoint x="260" y="340" as="targetPoint" />
          </mxGeometry>
        </mxCell>
        <mxCell id="AgzGkkPgZD7XDsQHhAtZ-124" value="&lt;font color=&quot;#999999&quot;&gt;Project&lt;/font&gt;" style="text;html=1;align=center;verticalAlign=middle;resizable=0;points=[];autosize=1;fillColor=#f5f5f5;strokeColor=#666666;fontColor=#333333;" vertex="1" parent="2">
          <mxGeometry x="430" y="450" width="50" height="20" as="geometry" />
        </mxCell>
        <mxCell id="AgzGkkPgZD7XDsQHhAtZ-125" value="TestManage" style="" vertex="1" parent="2">
          <mxGeometry x="330" y="410" width="70" height="50" as="geometry" />
        </mxCell>
        <mxCell id="AgzGkkPgZD7XDsQHhAtZ-126" value="" style="endArrow=classic;startArrow=classic;html=1;strokeColor=#000000;" edge="1" parent="2">
          <mxGeometry width="50" height="50" relative="1" as="geometry">
            <mxPoint x="220" y="540" as="sourcePoint" />
            <mxPoint x="220" y="480" as="targetPoint" />
          </mxGeometry>
        </mxCell>
        <mxCell id="AgzGkkPgZD7XDsQHhAtZ-127" value="Open Api" style="dashed=1;" vertex="1" parent="2">
          <mxGeometry x="310" y="190" width="110" height="50" as="geometry" />
        </mxCell>
        <mxCell id="AgzGkkPgZD7XDsQHhAtZ-128" value="Other system" style="rounded=0;whiteSpace=wrap;html=1;dashed=1;" vertex="1" parent="2">
          <mxGeometry x="310" y="110" width="110" height="50" as="geometry" />
        </mxCell>
        <mxCell id="AgzGkkPgZD7XDsQHhAtZ-130" value="" style="endArrow=classic;html=1;entryX=1;entryY=0.5;entryDx=0;entryDy=0;exitX=0;exitY=0.5;exitDx=0;exitDy=0;" edge="1" parent="2" source="AgzGkkPgZD7XDsQHhAtZ-128" target="7">
          <mxGeometry width="50" height="50" relative="1" as="geometry">
            <mxPoint x="520" y="340" as="sourcePoint" />
            <mxPoint x="570" y="290" as="targetPoint" />
          </mxGeometry>
        </mxCell>
        <mxCell id="AgzGkkPgZD7XDsQHhAtZ-131" value="" style="endArrow=classic;html=1;strokeColor=#000000;exitX=0.5;exitY=1;exitDx=0;exitDy=0;" edge="1" parent="2" source="AgzGkkPgZD7XDsQHhAtZ-127">
          <mxGeometry width="50" height="50" relative="1" as="geometry">
            <mxPoint x="340" y="290" as="sourcePoint" />
            <mxPoint x="218" y="260" as="targetPoint" />
            <Array as="points">
              <mxPoint x="365" y="260" />
              <mxPoint x="290" y="260" />
            </Array>
          </mxGeometry>
        </mxCell>
        <mxCell id="AgzGkkPgZD7XDsQHhAtZ-132" value="" style="endArrow=classic;html=1;strokeColor=#000000;entryX=0.5;entryY=0;entryDx=0;entryDy=0;exitX=0.5;exitY=1;exitDx=0;exitDy=0;" edge="1" parent="2" source="AgzGkkPgZD7XDsQHhAtZ-128" target="AgzGkkPgZD7XDsQHhAtZ-127">
          <mxGeometry width="50" height="50" relative="1" as="geometry">
            <mxPoint x="520" y="340" as="sourcePoint" />
            <mxPoint x="570" y="290" as="targetPoint" />
          </mxGeometry>
        </mxCell>
        <mxCell id="3" value="Client Control" style="swimlane;whiteSpace=wrap" parent="1" vertex="1">
          <mxGeometry x="520" y="130" width="415.5" height="662" as="geometry" />
        </mxCell>
        <mxCell id="15" value="TestPlan" style="" parent="3" vertex="1">
          <mxGeometry x="151.38" y="180" width="110" height="50" as="geometry" />
        </mxCell>
        <mxCell id="18" value="API" style="" parent="3" vertex="1">
          <mxGeometry x="86.38" y="290" width="110" height="50" as="geometry" />
        </mxCell>
        <mxCell id="30" value="Core" style="" parent="3" vertex="1">
          <mxGeometry x="240" y="290" width="110" height="50" as="geometry" />
        </mxCell>
        <mxCell id="31" value="Report" style="shape=note;whiteSpace=wrap;size=17" parent="3" vertex="1">
          <mxGeometry x="140" y="440" width="100" height="50" as="geometry" />
        </mxCell>
        <mxCell id="AgzGkkPgZD7XDsQHhAtZ-62" value="Notice" style="shape=note;whiteSpace=wrap;size=17" vertex="1" parent="3">
          <mxGeometry x="140" y="600" width="100" height="48" as="geometry" />
        </mxCell>
        <mxCell id="AgzGkkPgZD7XDsQHhAtZ-61" value="Log" style="shape=note;whiteSpace=wrap;size=17" vertex="1" parent="3">
          <mxGeometry x="140" y="520" width="100" height="50" as="geometry" />
        </mxCell>
        <mxCell id="AgzGkkPgZD7XDsQHhAtZ-70" value="" style="endArrow=classic;html=1;strokeColor=#000000;exitX=0.5;exitY=1;exitDx=0;exitDy=0;entryX=0;entryY=0;entryDx=100;entryDy=33.5;entryPerimeter=0;" edge="1" parent="3" source="30" target="31">
          <mxGeometry width="50" height="50" relative="1" as="geometry">
            <mxPoint x="46.879999999999995" y="412" as="sourcePoint" />
            <mxPoint x="96.88" y="362" as="targetPoint" />
            <Array as="points">
              <mxPoint x="295" y="474" />
            </Array>
          </mxGeometry>
        </mxCell>
        <mxCell id="AgzGkkPgZD7XDsQHhAtZ-71" value="" style="endArrow=classic;html=1;strokeColor=#000000;exitX=0.5;exitY=1;exitDx=0;exitDy=0;entryX=0;entryY=0;entryDx=100;entryDy=33.5;entryPerimeter=0;" edge="1" parent="3" source="30" target="AgzGkkPgZD7XDsQHhAtZ-61">
          <mxGeometry width="50" height="50" relative="1" as="geometry">
            <mxPoint x="291.38" y="385" as="sourcePoint" />
            <mxPoint x="236.38" y="513.5" as="targetPoint" />
            <Array as="points">
              <mxPoint x="295" y="554" />
            </Array>
          </mxGeometry>
        </mxCell>
        <mxCell id="AgzGkkPgZD7XDsQHhAtZ-72" value="" style="endArrow=classic;html=1;strokeColor=#000000;exitX=0.5;exitY=1;exitDx=0;exitDy=0;entryX=0;entryY=0;entryDx=100;entryDy=32.5;entryPerimeter=0;" edge="1" parent="3" source="30" target="AgzGkkPgZD7XDsQHhAtZ-62">
          <mxGeometry width="50" height="50" relative="1" as="geometry">
            <mxPoint x="291.38" y="385" as="sourcePoint" />
            <mxPoint x="236.38" y="585.5" as="targetPoint" />
            <Array as="points">
              <mxPoint x="295" y="633" />
              <mxPoint x="274.38" y="633" />
            </Array>
          </mxGeometry>
        </mxCell>
        <mxCell id="AgzGkkPgZD7XDsQHhAtZ-75" value="" style="endArrow=classic;html=1;strokeColor=#000000;exitX=1;exitY=0.5;exitDx=0;exitDy=0;entryX=0;entryY=0.5;entryDx=0;entryDy=0;" edge="1" parent="3" source="18" target="30">
          <mxGeometry width="50" height="50" relative="1" as="geometry">
            <mxPoint x="46.879999999999995" y="432" as="sourcePoint" />
            <mxPoint x="296.88" y="462" as="targetPoint" />
          </mxGeometry>
        </mxCell>
        <mxCell id="AgzGkkPgZD7XDsQHhAtZ-96" value="Agent Controll" style="" vertex="1" parent="3">
          <mxGeometry x="151.38" y="80" width="110" height="50" as="geometry" />
        </mxCell>
        <mxCell id="AgzGkkPgZD7XDsQHhAtZ-99" value="" style="endArrow=classic;html=1;entryX=1;entryY=0.75;entryDx=0;entryDy=0;exitX=0.5;exitY=0;exitDx=0;exitDy=0;" edge="1" parent="3" source="30" target="15">
          <mxGeometry width="50" height="50" relative="1" as="geometry">
            <mxPoint x="274" y="290" as="sourcePoint" />
            <mxPoint x="90" y="330" as="targetPoint" />
            <Array as="points">
              <mxPoint x="295" y="218" />
            </Array>
          </mxGeometry>
        </mxCell>
        <mxCell id="AgzGkkPgZD7XDsQHhAtZ-100" value="" style="endArrow=classic;html=1;strokeColor=#000000;entryX=0.5;entryY=1;entryDx=0;entryDy=0;exitX=0.5;exitY=0;exitDx=0;exitDy=0;" edge="1" parent="3" source="15" target="AgzGkkPgZD7XDsQHhAtZ-96">
          <mxGeometry width="50" height="50" relative="1" as="geometry">
            <mxPoint x="180" y="180" as="sourcePoint" />
            <mxPoint x="230" y="130" as="targetPoint" />
          </mxGeometry>
        </mxCell>
        <mxCell id="AgzGkkPgZD7XDsQHhAtZ-117" value="Function" style="swimlane;fontStyle=0;childLayout=stackLayout;horizontal=1;startSize=26;fillColor=none;horizontalStack=0;resizeParent=1;resizeParentMax=0;resizeLast=0;collapsible=1;marginBottom=0;" vertex="1" parent="3">
          <mxGeometry x="10" y="40" width="120" height="104" as="geometry" />
        </mxCell>
        <mxCell id="AgzGkkPgZD7XDsQHhAtZ-118" value="Generate Report" style="text;strokeColor=none;fillColor=none;align=left;verticalAlign=top;spacingLeft=4;spacingRight=4;overflow=hidden;rotatable=0;points=[[0,0.5],[1,0.5]];portConstraint=eastwest;" vertex="1" parent="AgzGkkPgZD7XDsQHhAtZ-117">
          <mxGeometry y="26" width="120" height="26" as="geometry" />
        </mxCell>
        <mxCell id="AgzGkkPgZD7XDsQHhAtZ-119" value="Record Log" style="text;strokeColor=none;fillColor=none;align=left;verticalAlign=top;spacingLeft=4;spacingRight=4;overflow=hidden;rotatable=0;points=[[0,0.5],[1,0.5]];portConstraint=eastwest;" vertex="1" parent="AgzGkkPgZD7XDsQHhAtZ-117">
          <mxGeometry y="52" width="120" height="26" as="geometry" />
        </mxCell>
        <mxCell id="AgzGkkPgZD7XDsQHhAtZ-120" value="Control AgentServer" style="text;strokeColor=none;fillColor=none;align=left;verticalAlign=top;spacingLeft=4;spacingRight=4;overflow=hidden;rotatable=0;points=[[0,0.5],[1,0.5]];portConstraint=eastwest;" vertex="1" parent="AgzGkkPgZD7XDsQHhAtZ-117">
          <mxGeometry y="78" width="120" height="26" as="geometry" />
        </mxCell>
        <mxCell id="4" value="Driver Agent" style="swimlane;whiteSpace=wrap;startSize=23;" parent="1" vertex="1">
          <mxGeometry x="935.5" y="130" width="394.5" height="662" as="geometry" />
        </mxCell>
        <mxCell id="AgzGkkPgZD7XDsQHhAtZ-101" value="Agent Server" style="" vertex="1" parent="4">
          <mxGeometry x="34.5" y="80" width="110" height="50" as="geometry" />
        </mxCell>
        <mxCell id="AgzGkkPgZD7XDsQHhAtZ-104" value="WebBrower" style="rounded=1;whiteSpace=wrap;html=1;" vertex="1" parent="4">
          <mxGeometry x="184.5" y="140" width="120" height="60" as="geometry" />
        </mxCell>
        <mxCell id="AgzGkkPgZD7XDsQHhAtZ-107" value="Windows Driver" style="rounded=1;whiteSpace=wrap;html=1;" vertex="1" parent="4">
          <mxGeometry x="184.5" y="470" width="120" height="60" as="geometry" />
        </mxCell>
        <mxCell id="AgzGkkPgZD7XDsQHhAtZ-106" value="IOS Device" style="rounded=1;whiteSpace=wrap;html=1;" vertex="1" parent="4">
          <mxGeometry x="184.5" y="360" width="120" height="60" as="geometry" />
        </mxCell>
        <mxCell id="AgzGkkPgZD7XDsQHhAtZ-105" value="Andriod Device" style="rounded=1;whiteSpace=wrap;html=1;" vertex="1" parent="4">
          <mxGeometry x="184.5" y="246" width="120" height="60" as="geometry" />
        </mxCell>
        <mxCell id="AgzGkkPgZD7XDsQHhAtZ-108" value="" style="endArrow=classic;html=1;strokeColor=#000000;entryX=0;entryY=0.5;entryDx=0;entryDy=0;exitX=0.5;exitY=1;exitDx=0;exitDy=0;" edge="1" parent="4" source="AgzGkkPgZD7XDsQHhAtZ-101" target="AgzGkkPgZD7XDsQHhAtZ-104">
          <mxGeometry width="50" height="50" relative="1" as="geometry">
            <mxPoint x="194.5" y="380" as="sourcePoint" />
            <mxPoint x="244.5" y="330" as="targetPoint" />
            <Array as="points">
              <mxPoint x="89.5" y="170" />
            </Array>
          </mxGeometry>
        </mxCell>
        <mxCell id="AgzGkkPgZD7XDsQHhAtZ-109" value="" style="endArrow=classic;html=1;strokeColor=#000000;entryX=0;entryY=0.5;entryDx=0;entryDy=0;exitX=0.5;exitY=1;exitDx=0;exitDy=0;" edge="1" parent="4" source="AgzGkkPgZD7XDsQHhAtZ-101" target="AgzGkkPgZD7XDsQHhAtZ-105">
          <mxGeometry width="50" height="50" relative="1" as="geometry">
            <mxPoint x="99.5" y="140" as="sourcePoint" />
            <mxPoint x="194.5" y="235" as="targetPoint" />
            <Array as="points">
              <mxPoint x="89.5" y="276" />
            </Array>
          </mxGeometry>
        </mxCell>
        <mxCell id="AgzGkkPgZD7XDsQHhAtZ-111" value="" style="endArrow=classic;html=1;strokeColor=#000000;entryX=0;entryY=0.5;entryDx=0;entryDy=0;exitX=0.5;exitY=1;exitDx=0;exitDy=0;" edge="1" parent="4" source="AgzGkkPgZD7XDsQHhAtZ-101" target="AgzGkkPgZD7XDsQHhAtZ-107">
          <mxGeometry width="50" height="50" relative="1" as="geometry">
            <mxPoint x="119.5" y="160" as="sourcePoint" />
            <mxPoint x="214.5" y="255" as="targetPoint" />
            <Array as="points">
              <mxPoint x="89.5" y="380" />
              <mxPoint x="89.5" y="500" />
            </Array>
          </mxGeometry>
        </mxCell>
        <mxCell id="AgzGkkPgZD7XDsQHhAtZ-112" value="APIdriver/macos/..." style="rounded=1;whiteSpace=wrap;html=1;dashed=1;" vertex="1" parent="4">
          <mxGeometry x="184.5" y="570" width="120" height="60" as="geometry" />
        </mxCell>
        <mxCell id="AgzGkkPgZD7XDsQHhAtZ-113" value="" style="endArrow=classic;html=1;strokeColor=#000000;entryX=0;entryY=0.5;entryDx=0;entryDy=0;exitX=0.5;exitY=1;exitDx=0;exitDy=0;" edge="1" parent="4" source="AgzGkkPgZD7XDsQHhAtZ-101" target="AgzGkkPgZD7XDsQHhAtZ-106">
          <mxGeometry width="50" height="50" relative="1" as="geometry">
            <mxPoint x="194.5" y="380" as="sourcePoint" />
            <mxPoint x="244.5" y="330" as="targetPoint" />
            <Array as="points">
              <mxPoint x="89.5" y="390" />
            </Array>
          </mxGeometry>
        </mxCell>
        <mxCell id="AgzGkkPgZD7XDsQHhAtZ-114" value="" style="endArrow=classic;html=1;strokeColor=#000000;entryX=0;entryY=0.5;entryDx=0;entryDy=0;exitX=0.5;exitY=1;exitDx=0;exitDy=0;dashed=1;" edge="1" parent="4" source="AgzGkkPgZD7XDsQHhAtZ-101" target="AgzGkkPgZD7XDsQHhAtZ-112">
          <mxGeometry width="50" height="50" relative="1" as="geometry">
            <mxPoint x="94.5" y="130" as="sourcePoint" />
            <mxPoint x="154.5" y="560" as="targetPoint" />
            <Array as="points">
              <mxPoint x="89.5" y="600" />
            </Array>
          </mxGeometry>
        </mxCell>
        <mxCell id="AgzGkkPgZD7XDsQHhAtZ-103" value="" style="endArrow=classic;startArrow=classic;html=1;entryX=0;entryY=0.5;entryDx=0;entryDy=0;exitX=1;exitY=0.5;exitDx=0;exitDy=0;strokeColor=#CC0000;dashed=1;" edge="1" parent="1" source="AgzGkkPgZD7XDsQHhAtZ-96" target="AgzGkkPgZD7XDsQHhAtZ-101">
          <mxGeometry width="50" height="50" relative="1" as="geometry">
            <mxPoint x="640" y="510" as="sourcePoint" />
            <mxPoint x="690" y="460" as="targetPoint" />
          </mxGeometry>
        </mxCell>
        <mxCell id="AgzGkkPgZD7XDsQHhAtZ-121" value="" style="endArrow=none;dashed=1;html=1;strokeColor=#007FFF;" edge="1" parent="1">
          <mxGeometry width="50" height="50" relative="1" as="geometry">
            <mxPoint x="30" y="610" as="sourcePoint" />
            <mxPoint x="30" y="610" as="targetPoint" />
            <Array as="points">
              <mxPoint x="30" y="520" />
              <mxPoint x="510" y="520" />
              <mxPoint x="510" y="610" />
            </Array>
          </mxGeometry>
        </mxCell>
        <mxCell id="AgzGkkPgZD7XDsQHhAtZ-98" value="" style="endArrow=classic;startArrow=classic;html=1;dashed=1;entryX=0;entryY=0.5;entryDx=0;entryDy=0;fillColor=#ffe6cc;strokeColor=#FF0000;exitX=1;exitY=0.5;exitDx=0;exitDy=0;" edge="1" parent="1" source="AgzGkkPgZD7XDsQHhAtZ-93" target="18">
          <mxGeometry width="50" height="50" relative="1" as="geometry">
            <mxPoint x="490" y="445" as="sourcePoint" />
            <mxPoint x="410" y="400" as="targetPoint" />
          </mxGeometry>
        </mxCell>
      </root>
    </mxGraphModel>
  </diagram>
</mxfile>
